<?xml version="1.0" encoding="UTF-8"?>
<svg version="1.1" xmlns="http://www.w3.org/2000/svg" width="180" height="180">
<path d="M0 0 C0.66515625 0.50015625 1.3303125 1.0003125 2.015625 1.515625 C2.61890625 1.95390625 3.2221875 2.3921875 3.84375 2.84375 C15.15165413 11.70670188 21.40942943 24.69489094 24.015625 38.515625 C24.015625 39.835625 24.015625 41.155625 24.015625 42.515625 C29.295625 42.515625 34.575625 42.515625 40.015625 42.515625 C40.015625 47.135625 40.015625 51.755625 40.015625 56.515625 C34.735625 56.515625 29.455625 56.515625 24.015625 56.515625 C23.95375 57.918125 23.891875 59.320625 23.828125 60.765625 C22.80543961 70.80782742 18.00174339 79.55470466 12.015625 87.515625 C11.57734375 88.11890625 11.1390625 88.7221875 10.6875 89.34375 C0.30024213 102.59645832 -14.89509871 108.14955496 -30.984375 110.515625 C-46.85883615 111.64951508 -61.32115378 107.03758204 -73.984375 97.515625 C-74.88929687 96.85820312 -74.88929687 96.85820312 -75.8125 96.1875 C-87.12040413 87.32454812 -93.37817943 74.33635906 -95.984375 60.515625 C-95.984375 59.195625 -95.984375 57.875625 -95.984375 56.515625 C-101.264375 56.515625 -106.544375 56.515625 -111.984375 56.515625 C-111.984375 51.895625 -111.984375 47.275625 -111.984375 42.515625 C-106.704375 42.515625 -101.424375 42.515625 -95.984375 42.515625 C-95.9225 41.113125 -95.860625 39.710625 -95.796875 38.265625 C-94.77418961 28.22342258 -89.97049339 19.47654534 -83.984375 11.515625 C-83.54609375 10.91234375 -83.1078125 10.3090625 -82.65625 9.6875 C-63.11369856 -15.24610012 -24.85333217 -17.70129413 0 0 Z M-41.984375 -8.484375 C-41.984375 -8.154375 -41.984375 -7.824375 -41.984375 -7.484375 C-38.024375 -7.484375 -34.064375 -7.484375 -29.984375 -7.484375 C-29.984375 -7.814375 -29.984375 -8.144375 -29.984375 -8.484375 C-33.944375 -8.484375 -37.904375 -8.484375 -41.984375 -8.484375 Z " fill="#3D0909" transform="translate(125.984375,40.484375)"/>
<path d="M0 0 C0.66515625 0.50015625 1.3303125 1.0003125 2.015625 1.515625 C2.61890625 1.95390625 3.2221875 2.3921875 3.84375 2.84375 C15.15165413 11.70670188 21.40942943 24.69489094 24.015625 38.515625 C24.015625 39.835625 24.015625 41.155625 24.015625 42.515625 C29.295625 42.515625 34.575625 42.515625 40.015625 42.515625 C40.015625 47.135625 40.015625 51.755625 40.015625 56.515625 C34.735625 56.515625 29.455625 56.515625 24.015625 56.515625 C23.95375 57.918125 23.891875 59.320625 23.828125 60.765625 C22.80543961 70.80782742 18.00174339 79.55470466 12.015625 87.515625 C11.57734375 88.11890625 11.1390625 88.7221875 10.6875 89.34375 C0.30024213 102.59645832 -14.89509871 108.14955496 -30.984375 110.515625 C-46.85883615 111.64951508 -61.32115378 107.03758204 -73.984375 97.515625 C-74.88929687 96.85820312 -74.88929687 96.85820312 -75.8125 96.1875 C-87.12040413 87.32454812 -93.37817943 74.33635906 -95.984375 60.515625 C-95.984375 59.195625 -95.984375 57.875625 -95.984375 56.515625 C-101.264375 56.515625 -106.544375 56.515625 -111.984375 56.515625 C-111.984375 51.895625 -111.984375 47.275625 -111.984375 42.515625 C-106.704375 42.515625 -101.424375 42.515625 -95.984375 42.515625 C-95.9225 41.113125 -95.860625 39.710625 -95.796875 38.265625 C-94.77418961 28.22342258 -89.97049339 19.47654534 -83.984375 11.515625 C-83.54609375 10.91234375 -83.1078125 10.3090625 -82.65625 9.6875 C-63.11369856 -15.24610012 -24.85333217 -17.70129413 0 0 Z M-41.984375 -8.484375 C-41.984375 -8.154375 -41.984375 -7.824375 -41.984375 -7.484375 C-38.024375 -7.484375 -34.064375 -7.484375 -29.984375 -7.484375 C-29.984375 -7.814375 -29.984375 -8.144375 -29.984375 -8.484375 C-33.944375 -8.484375 -37.904375 -8.484375 -41.984375 -8.484375 Z M-68.984375 12.515625 C-69.68304688 13.12277344 -70.38171875 13.72992188 -71.1015625 14.35546875 C-79.64681698 22.23967524 -85.49617216 33.26935912 -86.11328125 44.95703125 C-86.41531175 59.11219424 -82.65335914 69.79912145 -74.984375 81.515625 C-69.539375 81.020625 -69.539375 81.020625 -63.984375 80.515625 C-67.944375 81.505625 -67.944375 81.505625 -71.984375 82.515625 C-71.654375 83.505625 -71.324375 84.495625 -70.984375 85.515625 C-68.73491079 85.97658078 -66.48476699 86.4342202 -64.234375 86.890625 C-62.35492188 87.27347656 -62.35492188 87.27347656 -60.4375 87.6640625 C-54.97374049 88.73631819 -49.47872909 89.61644272 -43.984375 90.515625 C-42.9010791 90.69706055 -41.8177832 90.87849609 -40.70166016 91.06542969 C-37.36018645 91.6229135 -34.01638563 92.1641899 -30.671875 92.703125 C-28.98094727 92.98833008 -28.98094727 92.98833008 -27.25585938 93.27929688 C-21.56807301 94.1854639 -16.60628736 94.97486455 -10.984375 93.515625 C-8.564262 91.59940925 -8.564262 91.59940925 -6.984375 89.515625 C-8.84205708 87.65794292 -11.8881312 87.90249752 -14.390625 87.578125 C-15.69128906 87.40539062 -16.99195312 87.23265625 -18.33203125 87.0546875 C-19.7160828 86.87451511 -21.10019834 86.69483366 -22.484375 86.515625 C-25.18298154 86.16623776 -27.8806566 85.81136164 -30.578125 85.453125 C-32.38313477 85.21916016 -32.38313477 85.21916016 -34.22460938 84.98046875 C-36.984375 84.515625 -36.984375 84.515625 -37.984375 83.515625 C-37.37964355 83.60650391 -36.77491211 83.69738281 -36.15185547 83.79101562 C-33.3883456 84.2037167 -30.62389146 84.60972377 -27.859375 85.015625 C-26.90804687 85.15871094 -25.95671875 85.30179687 -24.9765625 85.44921875 C-20.27242794 86.13523837 -15.7539493 86.70833507 -10.984375 86.515625 C-10.984375 85.855625 -10.984375 85.195625 -10.984375 84.515625 C-9.994375 86.000625 -9.994375 86.000625 -8.984375 87.515625 C-8.324375 87.185625 -7.664375 86.855625 -6.984375 86.515625 C-7.4175 85.88914062 -7.850625 85.26265625 -8.296875 84.6171875 C-8.85375 83.79992187 -9.410625 82.98265625 -9.984375 82.140625 C-10.54125 81.32851562 -11.098125 80.51640625 -11.671875 79.6796875 C-12.984375 77.515625 -12.984375 77.515625 -12.984375 75.515625 C-12.654375 75.515625 -12.324375 75.515625 -11.984375 75.515625 C-11.613125 76.5365625 -11.613125 76.5365625 -11.234375 77.578125 C-9.74239592 81.08427583 -7.91601989 84.23182868 -5.984375 87.515625 C-0.23917109 86.68391397 2.70479472 81.90165561 6.015625 77.515625 C9.08800626 72.52761034 11.35379387 68.47585138 11.015625 62.515625 C9.365625 62.515625 7.715625 62.515625 6.015625 62.515625 C6.015625 63.175625 6.015625 63.835625 6.015625 64.515625 C5.0565625 64.2371875 5.0565625 64.2371875 4.078125 63.953125 C3.3975 63.80875 2.716875 63.664375 2.015625 63.515625 C1.685625 63.845625 1.355625 64.175625 1.015625 64.515625 C-2.73920145 64.515625 -3.9524894 64.39748502 -6.984375 62.515625 C-7.314375 61.855625 -7.644375 61.195625 -7.984375 60.515625 C-7.13875 60.721875 -6.293125 60.928125 -5.421875 61.140625 C-1.33232081 61.80553606 -1.33232081 61.80553606 5.015625 59.515625 C4.025625 50.605625 4.025625 50.605625 3.015625 41.515625 C0.25085047 44.28039953 0.49104059 46.7123003 0.015625 50.515625 C-0.479375 51.505625 -0.479375 51.505625 -0.984375 52.515625 C-2.469375 52.020625 -2.469375 52.020625 -3.984375 51.515625 C-4.479375 48.545625 -4.479375 48.545625 -4.984375 45.515625 C-3.664375 45.185625 -2.344375 44.855625 -0.984375 44.515625 C-0.95859375 43.90074219 -0.9328125 43.28585938 -0.90625 42.65234375 C-0.43720519 35.96845519 -0.43720519 35.96845519 2.078125 33.453125 C2.7175 33.14375 3.356875 32.834375 4.015625 32.515625 C4.015625 33.505625 4.015625 34.495625 4.015625 35.515625 C4.345625 36.175625 4.675625 36.835625 5.015625 37.515625 C5.44875 37.020625 5.881875 36.525625 6.328125 36.015625 C8.015625 34.515625 8.015625 34.515625 11.015625 34.515625 C10.39530024 31.05076793 10.39530024 31.05076793 9.015625 27.515625 C5.88812319 25.65602933 2.58429882 25.12739766 -0.984375 24.515625 C-0.984375 23.855625 -0.984375 23.195625 -0.984375 22.515625 C0.005625 23.175625 0.995625 23.835625 2.015625 24.515625 C4.64094024 24.68276069 4.64094024 24.68276069 7.015625 24.515625 C4.36992421 20.30210152 1.68520037 16.92918348 -1.984375 13.515625 C-2.48710938 13.0309375 -2.98984375 12.54625 -3.5078125 12.046875 C-14.61732429 1.82403786 -26.92149819 -0.14909384 -41.46875 0.140625 C-52.45368823 0.66265194 -60.9141775 5.1665288 -68.984375 12.515625 Z " fill="#E0592A" transform="translate(125.984375,40.484375)"/>
<path d="M0 0 C0.78745605 -0.00555908 1.57491211 -0.01111816 2.38623047 -0.0168457 C17.21799215 0.16418039 29.23484638 6.0243799 39.67578125 16.390625 C50.06827773 27.64038964 54.28961622 40.09145133 53.69140625 55.19921875 C52.70418759 70.58072241 46.16037337 83.04320937 34.95703125 93.3828125 C25.40628222 101.58568416 13.57256401 105.72425197 1.0625 105.625 C0.3212085 105.62008545 -0.42008301 105.6151709 -1.18383789 105.61010742 C-16.29496856 105.28978233 -28.17056018 99.01292664 -38.625 88.3125 C-49.2625771 76.44252068 -53.40450426 63.03556837 -52.92578125 47.37109375 C-52.11786501 33.24419616 -44.70542035 21.79625996 -34.625 12.3125 C-24.11489732 3.47041054 -13.63567527 0.08073929 0 0 Z M-32.625 15.3125 C-33.32367188 15.91964844 -34.02234375 16.52679688 -34.7421875 17.15234375 C-43.28744198 25.03655024 -49.13679716 36.06623412 -49.75390625 47.75390625 C-50.05593675 61.90906924 -46.29398414 72.59599645 -38.625 84.3125 C-33.18 83.8175 -33.18 83.8175 -27.625 83.3125 C-31.585 84.3025 -31.585 84.3025 -35.625 85.3125 C-35.295 86.3025 -34.965 87.2925 -34.625 88.3125 C-32.37553579 88.77345578 -30.12539199 89.2310952 -27.875 89.6875 C-25.99554688 90.07035156 -25.99554688 90.07035156 -24.078125 90.4609375 C-18.61436549 91.53319319 -13.11935409 92.41331772 -7.625 93.3125 C-6.5417041 93.49393555 -5.4584082 93.67537109 -4.34228516 93.86230469 C-1.00081145 94.4197885 2.34298937 94.9610649 5.6875 95.5 C7.37842773 95.78520508 7.37842773 95.78520508 9.10351562 96.07617188 C14.79130199 96.9823389 19.75308764 97.77173955 25.375 96.3125 C27.795113 94.39628425 27.795113 94.39628425 29.375 92.3125 C27.51731792 90.45481792 24.4712438 90.69937252 21.96875 90.375 C20.66808594 90.20226562 19.36742188 90.02953125 18.02734375 89.8515625 C16.6432922 89.67139011 15.25917666 89.49170866 13.875 89.3125 C11.17639346 88.96311276 8.4787184 88.60823664 5.78125 88.25 C3.97624023 88.01603516 3.97624023 88.01603516 2.13476562 87.77734375 C-0.625 87.3125 -0.625 87.3125 -1.625 86.3125 C-1.02026855 86.40337891 -0.41553711 86.49425781 0.20751953 86.58789062 C2.9710294 87.0005917 5.73548354 87.40659877 8.5 87.8125 C9.45132813 87.95558594 10.40265625 88.09867187 11.3828125 88.24609375 C16.08694706 88.93211337 20.6054257 89.50521007 25.375 89.3125 C25.375 88.6525 25.375 87.9925 25.375 87.3125 C26.365 88.7975 26.365 88.7975 27.375 90.3125 C28.035 89.9825 28.695 89.6525 29.375 89.3125 C28.941875 88.68601562 28.50875 88.05953125 28.0625 87.4140625 C27.505625 86.59679687 26.94875 85.77953125 26.375 84.9375 C25.818125 84.12539062 25.26125 83.31328125 24.6875 82.4765625 C23.375 80.3125 23.375 80.3125 23.375 78.3125 C23.705 78.3125 24.035 78.3125 24.375 78.3125 C24.74625 79.3334375 24.74625 79.3334375 25.125 80.375 C26.61697908 83.88115083 28.44335511 87.02870368 30.375 90.3125 C36.12020391 89.48078897 39.06416972 84.69853061 42.375 80.3125 C45.44738126 75.32448534 47.71316887 71.27272638 47.375 65.3125 C45.725 65.3125 44.075 65.3125 42.375 65.3125 C42.375 65.9725 42.375 66.6325 42.375 67.3125 C41.4159375 67.0340625 41.4159375 67.0340625 40.4375 66.75 C39.756875 66.605625 39.07625 66.46125 38.375 66.3125 C38.045 66.6425 37.715 66.9725 37.375 67.3125 C33.62017355 67.3125 32.4068856 67.19436002 29.375 65.3125 C29.045 64.6525 28.715 63.9925 28.375 63.3125 C29.220625 63.51875 30.06625 63.725 30.9375 63.9375 C35.02705419 64.60241106 35.02705419 64.60241106 41.375 62.3125 C40.385 53.4025 40.385 53.4025 39.375 44.3125 C36.61022547 47.07727453 36.85041559 49.5091753 36.375 53.3125 C35.88 54.3025 35.88 54.3025 35.375 55.3125 C33.89 54.8175 33.89 54.8175 32.375 54.3125 C31.88 51.3425 31.88 51.3425 31.375 48.3125 C32.695 47.9825 34.015 47.6525 35.375 47.3125 C35.40078125 46.69761719 35.4265625 46.08273438 35.453125 45.44921875 C35.92216981 38.76533019 35.92216981 38.76533019 38.4375 36.25 C39.076875 35.940625 39.71625 35.63125 40.375 35.3125 C40.375 36.3025 40.375 37.2925 40.375 38.3125 C40.705 38.9725 41.035 39.6325 41.375 40.3125 C41.808125 39.8175 42.24125 39.3225 42.6875 38.8125 C44.375 37.3125 44.375 37.3125 47.375 37.3125 C46.75467524 33.84764293 46.75467524 33.84764293 45.375 30.3125 C42.24749819 28.45290433 38.94367382 27.92427266 35.375 27.3125 C35.375 26.6525 35.375 25.9925 35.375 25.3125 C36.365 25.9725 37.355 26.6325 38.375 27.3125 C41.00031524 27.47963569 41.00031524 27.47963569 43.375 27.3125 C40.72929921 23.09897652 38.04457537 19.72605848 34.375 16.3125 C33.87226562 15.8278125 33.36953125 15.343125 32.8515625 14.84375 C21.74205071 4.62091286 9.43787681 2.64778116 -5.109375 2.9375 C-16.09431323 3.45952694 -24.5548025 7.9634038 -32.625 15.3125 Z " fill="#E8DDDC" transform="translate(89.625,37.6875)"/>
<path d="M0 0 C3.1875 1.3125 3.1875 1.3125 6 3 C6.9075 3.37125 7.815 3.7425 8.75 4.125 C12.21628224 7.01356854 12.392328 10.67373815 13 15 C14.98 15 16.96 15 19 15 C18.360625 15.12375 17.72125 15.2475 17.0625 15.375 C16.381875 15.58125 15.70125 15.7875 15 16 C14.67 16.66 14.34 17.32 14 18 C11 14.25 11 14.25 11 12 C10.34 11.67 9.68 11.34 9 11 C9.33 9.68 9.66 8.36 10 7 C9.195625 6.8453125 9.195625 6.8453125 8.375 6.6875 C6 6 6 6 3 4.3125 C0.13309649 2.65565998 0.13309649 2.65565998 -2.375 3.8125 C-2.91125 4.204375 -3.4475 4.59625 -4 5 C-4 5.33 -4 5.66 -4 6 C-5.98 6.33 -7.96 6.66 -10 7 C-9.03578125 7.02578125 -8.0715625 7.0515625 -7.078125 7.078125 C-5.18320313 7.16320313 -5.18320313 7.16320313 -3.25 7.25 C-1.37054688 7.31960937 -1.37054688 7.31960937 0.546875 7.390625 C4.48497745 8.08558426 5.70656083 8.77137204 8 12 C9.27119529 17.08213175 9.25796915 22.10298629 9.3125 27.3125 C9.34150391 28.22451172 9.37050781 29.13652344 9.40039062 30.07617188 C9.46013678 36.48739407 8.393245 40.52925806 5 46 C2.14675563 47.42662219 0.16545451 47.31033868 -3 47 C-6.91876489 44.55077194 -9.66350885 41.18596369 -12.5859375 37.6640625 C-14.06808066 35.8662704 -14.06808066 35.8662704 -16.1875 33.875 C-21.3405081 28.54430196 -23.05006459 21.93849085 -23.25 14.6875 C-23 11 -23 11 -21 8 C-19.3364521 7.32558869 -17.66933058 6.6599679 -16 6 C-14.30225062 4.70647667 -12.63260714 3.37482707 -11 2 C-7.2817062 -0.47886253 -4.30942254 -0.54072602 0 0 Z " fill="#B7502D" transform="translate(104,46)"/>
<path d="M0 0 C0.99 0.99 0.99 0.99 2 2 C2.66 1.34 3.32 0.68 4 0 C6 2 6 2 6 4 C6.99 3.34 7.98 2.68 9 2 C9.99 2 10.98 2 12 2 C15.09040691 11.85067202 14.37250891 21.8777468 13 32 C13.33 32 13.66 32 14 32 C13.50195899 43.20592272 6.27078263 51.92679241 -1.640625 59.2578125 C-11.33480582 67.59251352 -23.24818239 71.39794696 -35.875 71.1875 C-36.63296875 71.18685547 -37.3909375 71.18621094 -38.171875 71.18554688 C-43.71771869 71.14114065 -43.71771869 71.14114065 -46 70 C-45.505 68.515 -45.505 68.515 -45 67 C-46.16015625 66.76216797 -46.16015625 66.76216797 -47.34375 66.51953125 C-53.96435636 65.03644987 -59.67799981 63.3515178 -65 59 C-65 58.67 -65 58.34 -65 58 C-57.82270015 58.59452293 -50.82652916 59.68249453 -43.75 61 C-35.1520239 62.55583085 -26.74449829 63.69689781 -18 64 C-18 63.67 -18 63.34 -18 63 C-16.906875 62.731875 -15.81375 62.46375 -14.6875 62.1875 C-11.2149991 61.069237 -10.28172966 60.56255793 -8 58 C-8.85231201 57.88930176 -9.70462402 57.77860352 -10.58276367 57.66455078 C-13.7610542 57.24857023 -16.93849205 56.82669568 -20.11547852 56.40087891 C-21.48756384 56.21819287 -22.85995955 56.03782189 -24.23266602 55.85986328 C-26.21191202 55.60285564 -28.18996035 55.33667772 -30.16796875 55.0703125 C-31.35672607 54.91320801 -32.5454834 54.75610352 -33.77026367 54.59423828 C-36.75659983 54.04478313 -39.24017098 53.24226434 -42 52 C-38.81641783 50.99795597 -36.47454417 51.03885686 -33.19140625 51.55859375 C-31.82338867 51.76645508 -31.82338867 51.76645508 -30.42773438 51.97851562 C-29.48220703 52.12998047 -28.53667969 52.28144531 -27.5625 52.4375 C-25.68930756 52.73110785 -23.81561974 53.02157588 -21.94140625 53.30859375 C-21.11326416 53.44064209 -20.28512207 53.57269043 -19.43188477 53.70874023 C-16.93098512 54.00826571 -14.51627175 54.04962452 -12 54 C-12 53.01 -12 52.02 -12 51 C-10.68 52.32 -9.36 53.64 -8 55 C-8.44472656 54.38511719 -8.88945313 53.77023438 -9.34765625 53.13671875 C-9.91355469 52.32847656 -10.47945312 51.52023438 -11.0625 50.6875 C-11.63097656 49.88699219 -12.19945312 49.08648437 -12.78515625 48.26171875 C-13.18605469 47.51535156 -13.58695313 46.76898438 -14 46 C-13.67 45.01 -13.34 44.02 -13 43 C-9.30458414 42.04975021 -6.69541586 42.04975021 -3 43 C-3 43.33 -3 43.66 -3 44 C-5.97 44 -8.94 44 -12 44 C-11.566875 44.69867188 -11.13375 45.39734375 -10.6875 46.1171875 C-10.130625 47.02726562 -9.57375 47.93734375 -9 48.875 C-8.443125 49.77992187 -7.88625 50.68484375 -7.3125 51.6171875 C-6 54 -6 54 -6 56 C2.08171671 51.95914165 6.8708108 44.26604404 10 36 C10 34.68 10 33.36 10 32 C9.01 32 8.02 32 7 32 C7.33 32.66 7.66 33.32 8 34 C6.35 33.67 4.7 33.34 3 33 C2.505 33.99 2.505 33.99 2 35 C0.515 34.01 0.515 34.01 -1 33 C-1.495 33.99 -1.495 33.99 -2 35 C-2.66 34.34 -3.32 33.68 -4 33 C-4.99 33.495 -4.99 33.495 -6 34 C-6.66 32.35 -7.32 30.7 -8 29 C-4.04 28.67 -0.08 28.34 4 28 C3.01 20.08 3.01 20.08 2 12 C1.67 14.64 1.34 17.28 1 20 C-0.65 20.33 -2.3 20.66 -4 21 C-4.66 18.69 -5.32 16.38 -6 14 C-4.35 13.67 -2.7 13.34 -1 13 C-1.01160156 12.39671875 -1.02320313 11.7934375 -1.03515625 11.171875 C-1.04417969 10.37265625 -1.05320313 9.5734375 -1.0625 8.75 C-1.07410156 7.96109375 -1.08570313 7.1721875 -1.09765625 6.359375 C-1.00385306 4.09308998 -0.63241063 2.1711105 0 0 Z " fill="#ECE2E1" transform="translate(126,72)"/>
<path d="M0 0 C0.33 0 0.66 0 1 0 C1.66 9.57 2.32 19.14 3 29 C3.99 27.68 4.98 26.36 6 25 C6 26.98 6 28.96 6 31 C8.31 28.36 10.62 25.72 13 23 C13 26.41321235 12.33132534 27.39472885 10.5 30.1875 C10.0359375 30.90292969 9.571875 31.61835937 9.09375 32.35546875 C8.7328125 32.89816406 8.371875 33.44085938 8 34 C8.51949219 33.60167969 9.03898437 33.20335937 9.57421875 32.79296875 C11.702444 31.17614698 13.84934455 29.58681319 16 28 C16.845625 27.360625 17.69125 26.72125 18.5625 26.0625 C23.76041164 23.79674365 30.92571356 26.50855364 36.4375 27.5625 C37.16904297 27.70107422 37.90058594 27.83964844 38.65429688 27.98242188 C40.43646318 28.3202181 42.21827002 28.65990988 44 29 C43.67 30.32 43.34 31.64 43 33 C42.01 33 41.02 33 40 33 C40 33.66 40 34.32 40 35 C39.34 35 38.68 35 38 35 C37.67 35.99 37.34 36.98 37 38 C36.236875 37.95875 35.47375 37.9175 34.6875 37.875 C31.77281584 37.77919176 31.77281584 37.77919176 29 40 C29.99 40.495 29.99 40.495 31 41 C31 41.66 31 42.32 31 43 C31.8353125 43.1546875 31.8353125 43.1546875 32.6875 43.3125 C35.4769101 44.14178408 37.6139064 45.34299056 40 47 C40 47.66 40 48.32 40 49 C36.00118212 48.38479725 33.19641774 46.39731331 30 44 C30 43.34 30 42.68 30 42 C29.01 41.67 28.02 41.34 27 41 C27 40.34 27 39.68 27 39 C26.34 39 25.68 39 25 39 C24.34 37.35 23.68 35.7 23 34 C18.87248551 34.60698743 15.6678852 36.03810791 12 38 C13.65 38.33 15.3 38.66 17 39 C16.01 39.66 15.02 40.32 14 41 C15.49743119 42.49743119 16.98824239 42.33202693 19.0625 42.5625 C20.361875 42.706875 21.66125 42.85125 23 43 C23 43.33 23 43.66 23 44 C17.06 44.495 17.06 44.495 11 45 C11.66 45.66 12.32 46.32 13 47 C9.535 46.505 9.535 46.505 6 46 C6 46.66 6 47.32 6 48 C6.61875 48.268125 7.2375 48.53625 7.875 48.8125 C10 50 10 50 12 53 C9.75 53.3125 9.75 53.3125 7 53 C4.6875 50.5 4.6875 50.5 3 48 C3.33 49.65 3.66 51.3 4 53 C3.01 53 2.02 53 1 53 C0.67 52.34 0.34 51.68 0 51 C-1.485 51.495 -1.485 51.495 -3 52 C-2.67 50.35 -2.34 48.7 -2 47 C-2.99 48.32 -3.98 49.64 -5 51 C-6.32 50.67 -7.64 50.34 -9 50 C-8.01 49.01 -7.02 48.02 -6 47 C-6.495 45.515 -6.495 45.515 -7 44 C-10.96 44 -14.92 44 -19 44 C-19 43.67 -19 43.34 -19 43 C-16.69 42.34 -14.38 41.68 -12 41 C-12.66 40.34 -13.32 39.68 -14 39 C-12.02 38.505 -12.02 38.505 -10 38 C-13.63 36.35 -17.26 34.7 -21 33 C-15.80426904 31.26808968 -11.02256281 34.21780029 -6 36 C-9.3 31.38 -12.6 26.76 -16 22 C-15.67 21.34 -15.34 20.68 -15 20 C-11.37 24.29 -7.74 28.58 -4 33 C-4.66 30.69 -5.32 28.38 -6 26 C-5.67 24.68 -5.34 23.36 -5 22 C-4.01 24.64 -3.02 27.28 -2 30 C-1.34 20.1 -0.68 10.2 0 0 Z " fill="#D6CCCD" transform="translate(73,74)"/>
<path d="M0 0 C0.66 0.33 1.32 0.66 2 1 C3.37342831 1.0689472 4.75002102 1.08467708 6.125 1.0625 C7.40375 1.041875 8.6825 1.02125 10 1 C9.83723958 2.98567708 9.67447917 4.97135417 9.51171875 6.95703125 C9.81000572 9.25641831 9.81000572 9.25641831 12.3125 10.4609375 C13.199375 10.96882813 14.08625 11.47671875 15 12 C18.24185176 16.08571773 20.80543425 20.2164806 21.375 25.4375 C21.25125 26.283125 21.1275 27.12875 21 28 C21 30.83967231 21.40267181 33.23735711 22 36 C23.98 35.34 25.96 34.68 28 34 C27 37 27 37 25 38 C21.4316546 38.39648282 19.57753247 38.3609578 16.5 36.4375 C13.96204794 33.96299674 11.67561375 31.3895217 9.4140625 28.6640625 C7.93191934 26.8662704 7.93191934 26.8662704 5.8125 24.875 C0.63766173 19.52171903 -1.08173854 12.90932077 -1.1875 5.625 C-1 2 -1 2 0 0 Z " fill="#ECE2E2" transform="translate(82,55)"/>
<path d="M0 0 C0.66 0.66 1.32 1.32 2 2 C2.66 1.34 3.32 0.68 4 0 C6 2 6 2 6 4 C6.99 3.34 7.98 2.68 9 2 C9.99 2 10.98 2 12 2 C15.3407478 12.64863361 14.41686513 23.23200267 12 34 C10.68 33.34 9.36 32.68 8 32 C8 32.66 8 33.32 8 34 C6.35 33.67 4.7 33.34 3 33 C2.67 33.66 2.34 34.32 2 35 C1.01 34.34 0.02 33.68 -1 33 C-1.33 33.66 -1.66 34.32 -2 35 C-2.66 34.34 -3.32 33.68 -4 33 C-4.99 33.495 -4.99 33.495 -6 34 C-6.66 32.35 -7.32 30.7 -8 29 C-4.04 28.67 -0.08 28.34 4 28 C3.34 22.72 2.68 17.44 2 12 C1.67 14.64 1.34 17.28 1 20 C-0.65 20.33 -2.3 20.66 -4 21 C-4.66 18.69 -5.32 16.38 -6 14 C-4.35 13.67 -2.7 13.34 -1 13 C-1.01160156 12.39671875 -1.02320312 11.7934375 -1.03515625 11.171875 C-1.04417969 10.37265625 -1.05320312 9.5734375 -1.0625 8.75 C-1.07410156 7.96109375 -1.08570312 7.1721875 -1.09765625 6.359375 C-1.00385306 4.09308998 -0.63241063 2.1711105 0 0 Z " fill="#4A191A" transform="translate(126,72)"/>
<path d="M0 0 C0.33 0 0.66 0 1 0 C1.09796875 0.68964844 1.1959375 1.37929687 1.296875 2.08984375 C2.76784009 11.33409852 5.76144758 18.32926253 11 26 C11 26.66 11 27.32 11 28 C12.051875 27.67 13.10375 27.34 14.1875 27 C17.38873357 26.16033218 19.7411008 25.80249096 23 26 C22.67 26.66 22.34 27.32 22 28 C19.35139573 28.59355614 16.70802678 28.74209269 14 29 C14.33 29.66 14.66 30.32 15 31 C17.24809045 31.59394728 19.52665385 32.07386455 21.8125 32.5 C23.05644531 32.7371875 24.30039063 32.974375 25.58203125 33.21875 C35.61139364 35.0194924 45.67762954 36.58679863 55.75 38.125 C56.9359375 38.30675781 58.121875 38.48851562 59.34375 38.67578125 C62.2290606 39.11788529 65.11447757 39.55928103 68 40 C68.33 40.99 68.66 41.98 69 43 C57.85787582 42.79470123 47.19817655 40.88402268 36.28198242 38.7277832 C34.59165894 38.39653442 34.59165894 38.39653442 32.8671875 38.05859375 C31.35294189 37.75393188 31.35294189 37.75393188 29.80810547 37.44311523 C27.14886657 37.02349094 24.68615164 36.9166918 22 37 C29.37650905 41.86179006 37.43150635 43.32082634 46 45 C46 45.33 46 45.66 46 46 C44.02 46 42.04 46 40 46 C40 46.66 40 47.32 40 48 C25.26505536 45.38573563 15.16479264 37.70813222 6 26 C0.44662213 17.27929635 -2.26623622 10.39802502 0 0 Z " fill="#E7DBDA" transform="translate(40,94)"/>
<path d="M0 0 C1.39377814 0.25544598 2.78834608 0.50661273 4.18359375 0.75390625 C5.60185891 1.0218734 7.01982708 1.29141707 8.4375 1.5625 C9.16904297 1.70107422 9.90058594 1.83964844 10.65429688 1.98242188 C12.43646318 2.3202181 14.21827002 2.65990988 16 3 C15.67 4.32 15.34 5.64 15 7 C14.01 7 13.02 7 12 7 C12 7.66 12 8.32 12 9 C11.34 9 10.68 9 10 9 C9.67 9.99 9.34 10.98 9 12 C8.236875 11.95875 7.47375 11.9175 6.6875 11.875 C3.77281584 11.77919176 3.77281584 11.77919176 1 14 C1.66 14.33 2.32 14.66 3 15 C3 15.66 3 16.32 3 17 C3.556875 17.103125 4.11375 17.20625 4.6875 17.3125 C7.4769101 18.14178408 9.6139064 19.34299056 12 21 C12 21.66 12 22.32 12 23 C8.00118212 22.38479725 5.19641774 20.39731331 2 18 C2 17.34 2 16.68 2 16 C1.01 15.67 0.02 15.34 -1 15 C-1 14.34 -1 13.68 -1 13 C-1.66 13 -2.32 13 -3 13 C-3.66 11.35 -4.32 9.7 -5 8 C-9.12751449 8.60698743 -12.3321148 10.03810791 -16 12 C-14.35 12.33 -12.7 12.66 -11 13 C-14.5486135 15.36574234 -15.5764525 15.10865265 -19.6875 14.625 C-21.17830078 14.45871094 -21.17830078 14.45871094 -22.69921875 14.2890625 C-23.45847656 14.19367188 -24.21773438 14.09828125 -25 14 C-23.14468464 9.73277467 -22.15204331 7.93372843 -18 6 C-15.30389429 4.13791168 -12.61863317 2.26347782 -9.94921875 0.36328125 C-6.10098 -1.41557348 -4.11030356 -0.90076865 0 0 Z " fill="#CDA59B" transform="translate(101,100)"/>
<path d="M0 0 C0.33 1.65 0.66 3.3 1 5 C1.66 5 2.32 5 3 5 C4.625 6.375 4.625 6.375 6 8 C6 8.66 6 9.32 6 10 C6.721875 10.268125 7.44375 10.53625 8.1875 10.8125 C12.95630528 12.82599556 15.84340066 14.21412202 18 19 C11.08843714 18.56372195 4.19145015 17.99134836 -2.6875 17.1875 C-3.84636719 17.05730469 -5.00523438 16.92710938 -6.19921875 16.79296875 C-9 16 -9 16 -10.23046875 13.97265625 C-10.61138672 12.99619141 -10.61138672 12.99619141 -11 12 C-13.55519921 11.18828772 -13.55519921 11.18828772 -16 11 C-16 10.67 -16 10.34 -16 10 C-12.535 9.505 -12.535 9.505 -9 9 C-11.64 8.67 -14.28 8.34 -17 8 C-17 7.67 -17 7.34 -17 7 C-13.535 6.505 -13.535 6.505 -10 6 C-11.32 5.34 -12.64 4.68 -14 4 C-12.42466914 3.13116294 -10.83935491 2.28040932 -9.25 1.4375 C-8.36828125 0.96183594 -7.4865625 0.48617187 -6.578125 -0.00390625 C-3.79298812 -1.07998186 -2.73019786 -1.06528748 0 0 Z " fill="#3B0707" transform="translate(97,108)"/>
<path d="M0 0 C0.66 0.66 1.32 1.32 2 2 C2.66 1.34 3.32 0.68 4 0 C6 2 6 2 6 4 C6.99 3.34 7.98 2.68 9 2 C8.34 4.64 7.68 7.28 7 10 C7.66 9.67 8.32 9.34 9 9 C8.67 10.32 8.34 11.64 8 13 C8.66 13 9.32 13 10 13 C9.814375 13.9075 9.62875 14.815 9.4375 15.75 C9.04265379 18.68314324 9.05308428 20.2644657 10 23 C8.02 23.66 6.04 24.32 4 25 C3.34 20.71 2.68 16.42 2 12 C1.67 14.64 1.34 17.28 1 20 C-0.65 20.33 -2.3 20.66 -4 21 C-4.66 18.69 -5.32 16.38 -6 14 C-4.35 13.67 -2.7 13.34 -1 13 C-1.01160156 12.39671875 -1.02320312 11.7934375 -1.03515625 11.171875 C-1.04417969 10.37265625 -1.05320312 9.5734375 -1.0625 8.75 C-1.07410156 7.96109375 -1.08570312 7.1721875 -1.09765625 6.359375 C-1.00385306 4.09308998 -0.63241063 2.1711105 0 0 Z " fill="#D7CECF" transform="translate(126,72)"/>
<path d="M0 0 C7.84734606 0.63397622 15.59059099 1.80759976 23.35205078 3.10180664 C25.39116138 3.44018186 27.43179358 3.76808197 29.47265625 4.09570312 C30.76816406 4.31033203 32.06367187 4.52496094 33.3984375 4.74609375 C34.57067871 4.93872803 35.74291992 5.1313623 36.95068359 5.32983398 C39.63892307 5.92064402 41.63626501 6.62763772 44 8 C30.52280737 12.06858646 16.71324316 9.77874689 4 4 C1.5 1.8125 1.5 1.8125 0 0 Z " fill="#B74E2A" transform="translate(61,130)"/>
<path d="M0 0 C1.41702513 0.14230808 2.8336096 0.28900746 4.25 0.4375 C5.43335937 0.55931641 5.43335937 0.55931641 6.640625 0.68359375 C8.82364639 0.97634993 10.8773182 1.42064419 13 2 C12.67 3.32 12.34 4.64 12 6 C11.01 6 10.02 6 9 6 C9 6.66 9 7.32 9 8 C8.34 8 7.68 8 7 8 C6.67 8.99 6.34 9.98 6 11 C4.8553125 10.938125 4.8553125 10.938125 3.6875 10.875 C0.77281584 10.77919176 0.77281584 10.77919176 -2 13 C-1.34 13.33 -0.68 13.66 0 14 C0 14.66 0 15.32 0 16 C0.556875 16.103125 1.11375 16.20625 1.6875 16.3125 C4.4769101 17.14178408 6.6139064 18.34299056 9 20 C9 20.66 9 21.32 9 22 C5.00118212 21.38479725 2.19641774 19.39731331 -1 17 C-1 16.34 -1 15.68 -1 15 C-1.99 14.67 -2.98 14.34 -4 14 C-4 13.34 -4 12.68 -4 12 C-4.66 12 -5.32 12 -6 12 C-6.33 10.35 -6.66 8.7 -7 7 C-4.03 5.35 -1.06 3.7 2 2 C1.34 1.34 0.68 0.68 0 0 Z " fill="#E6E0E1" transform="translate(104,101)"/>
<path d="M0 0 C1.22589844 0.01353516 1.22589844 0.01353516 2.4765625 0.02734375 C3.41628906 0.04474609 3.41628906 0.04474609 4.375 0.0625 C5.43599328 1.80085057 6.47326483 3.55369804 7.5 5.3125 C8.08007812 6.28703125 8.66015625 7.2615625 9.2578125 8.265625 C10.375 11.0625 10.375 11.0625 9.5546875 13.421875 C9.16539063 13.96328125 8.77609375 14.5046875 8.375 15.0625 C6.065 15.0625 3.755 15.0625 1.375 15.0625 C1.045 14.4025 0.715 13.7425 0.375 13.0625 C2.355 13.0625 4.335 13.0625 6.375 13.0625 C6.045 12.4025 5.715 11.7425 5.375 11.0625 C5.045 11.3925 4.715 11.7225 4.375 12.0625 C2.04202567 12.10342937 -0.29205225 12.10491723 -2.625 12.0625 C-4.605 8.5975 -4.605 8.5975 -6.625 5.0625 C-4.315 5.0625 -2.005 5.0625 0.375 5.0625 C0.375 4.7325 0.375 4.4025 0.375 4.0625 C-2.265 4.0625 -4.905 4.0625 -7.625 4.0625 C-7.295 3.0725 -6.965 2.0825 -6.625 1.0625 C-4.21954362 -0.14022819 -2.67503047 -0.03821472 0 0 Z " fill="#BA5532" transform="translate(91.625,67.9375)"/>
<path d="M0 0 C3.1875 1.3125 3.1875 1.3125 6 3 C6.9075 3.37125 7.815 3.7425 8.75 4.125 C12.21628224 7.01356854 12.392328 10.67373815 13 15 C14.98 15 16.96 15 19 15 C18.360625 15.12375 17.72125 15.2475 17.0625 15.375 C16.381875 15.58125 15.70125 15.7875 15 16 C14.67 16.66 14.34 17.32 14 18 C11 14.25 11 14.25 11 12 C10.34 11.67 9.68 11.34 9 11 C9.33 9.68 9.66 8.36 10 7 C9.46375 6.896875 8.9275 6.79375 8.375 6.6875 C6 6 6 6 3 4.3125 C0.13309649 2.65565998 0.13309649 2.65565998 -2.375 3.8125 C-2.91125 4.204375 -3.4475 4.59625 -4 5 C-4 5.33 -4 5.66 -4 6 C-5.98 6.33 -7.96 6.66 -10 7 C-8.50146484 7.07347656 -8.50146484 7.07347656 -6.97265625 7.1484375 C-5.03712891 7.26058594 -5.03712891 7.26058594 -3.0625 7.375 C-1.13083984 7.47941406 -1.13083984 7.47941406 0.83984375 7.5859375 C2.40412109 7.79089844 2.40412109 7.79089844 4 8 C4.33 8.66 4.66 9.32 5 10 C-3.40215965 10.11039334 -11.64736824 9.95458649 -20 9 C-18.34808509 7.64843325 -16.67705908 6.320238 -15 5 C-14.46890625 4.54496094 -13.9378125 4.08992188 -13.390625 3.62109375 C-8.77490219 -0.09477484 -5.90721679 -0.75012277 0 0 Z " fill="#BCABAC" transform="translate(104,46)"/>
<path d="M0 0 C2.625 -0.625 2.625 -0.625 6 0 C9.43975229 3.99754995 11.80115288 8.17723475 12.375 13.4375 C12.25125 14.283125 12.1275 15.12875 12 16 C12 18.83967231 12.40267181 21.23735711 13 24 C14.98 23.34 16.96 22.68 19 22 C18 25 18 25 16 26 C12.4316546 26.39648282 10.57753247 26.3609578 7.5 24.4375 C4.96775862 21.96856465 2.68615718 19.39954933 0.42578125 16.68359375 C-1.27588105 14.67423361 -3.10266727 12.82435839 -5 11 C-4.67 10.34 -4.34 9.68 -4 9 C-3.01 10.485 -3.01 10.485 -2 12 C1.56769552 12.73606499 1.56769552 12.73606499 5 13 C5.33 12.34 5.66 11.68 6 11 C6.33 11.99 6.66 12.98 7 14 C5.35 14.33 3.7 14.66 2 15 C4.31 15 6.62 15 9 15 C10.25322801 11.24031598 9.57172488 10.35989002 7.875 6.875 C7.45992187 5.98554687 7.04484375 5.09609375 6.6171875 4.1796875 C5.15538437 1.75559958 5.15538437 1.75559958 2.3203125 1.1953125 C1.17175781 1.09863281 1.17175781 1.09863281 0 1 C0 0.67 0 0.34 0 0 Z " fill="#E3D3D0" transform="translate(91,67)"/>
<path d="M0 0 C0.33 0 0.66 0 1 0 C1 6.93 1 13.86 1 21 C-0.32 20.67 -1.64 20.34 -3 20 C-2.67 20.99 -2.34 21.98 -2 23 C-4.79908133 25.79908133 -7.13081763 25.72362983 -11 26 C-11.66 25.34 -12.32 24.68 -13 24 C-11.68 23.67 -10.36 23.34 -9 23 C-12.63 21.35 -16.26 19.7 -20 18 C-14.80426904 16.26808968 -10.02256281 19.21780029 -5 21 C-8.3 16.38 -11.6 11.76 -15 7 C-14.67 6.34 -14.34 5.68 -14 5 C-10.37 9.29 -6.74 13.58 -3 18 C-3.66 15.69 -4.32 13.38 -5 11 C-4.67 9.68 -4.34 8.36 -4 7 C-3.01 9.64 -2.02 12.28 -1 15 C-0.67 10.05 -0.34 5.1 0 0 Z " fill="#BFAFB0" transform="translate(72,89)"/>
<path d="M0 0 C0 0.33 0 0.66 0 1 C-2.97 1 -5.94 1 -9 1 C-8.566875 1.69867188 -8.13375 2.39734375 -7.6875 3.1171875 C-7.130625 4.02726562 -6.57375 4.93734375 -6 5.875 C-5.443125 6.77992187 -4.88625 7.68484375 -4.3125 8.6171875 C-3 11 -3 11 -3 13 C-2.01 13.33 -1.02 13.66 0 14 C-1.98 14.99 -1.98 14.99 -4 16 C-4.33 15.67 -4.66 15.34 -5 15 C-7.0814299 14.65340913 -9.17235433 14.36353885 -11.265625 14.09765625 C-12.54824219 13.92943359 -13.83085938 13.76121094 -15.15234375 13.58789062 C-17.19714921 13.32463723 -19.24219276 13.0634869 -21.28759766 12.80493164 C-23.26016772 12.5539947 -25.23166404 12.29466287 -27.203125 12.03515625 C-28.97671387 11.80904663 -28.97671387 11.80904663 -30.78613281 11.57836914 C-33.77234219 11.04096941 -36.24300917 10.24259199 -39 9 C-35.81641783 7.99795597 -33.47454417 8.03885686 -30.19140625 8.55859375 C-29.27939453 8.69716797 -28.36738281 8.83574219 -27.42773438 8.97851562 C-26.00944336 9.20571289 -26.00944336 9.20571289 -24.5625 9.4375 C-22.68930756 9.73110785 -20.81561974 10.02157588 -18.94140625 10.30859375 C-17.69919312 10.50666626 -17.69919312 10.50666626 -16.43188477 10.70874023 C-13.93098512 11.00826571 -11.51627175 11.04962452 -9 11 C-9 10.01 -9 9.02 -9 8 C-7.68 9.32 -6.36 10.64 -5 12 C-5.44472656 11.38511719 -5.88945313 10.77023438 -6.34765625 10.13671875 C-6.91355469 9.32847656 -7.47945312 8.52023438 -8.0625 7.6875 C-8.63097656 6.88699219 -9.19945313 6.08648437 -9.78515625 5.26171875 C-10.18605469 4.51535156 -10.58695313 3.76898438 -11 3 C-10.67 2.01 -10.34 1.02 -10 0 C-6.30581799 -1.231394 -3.7943739 -0.64432764 0 0 Z " fill="#BBAAAC" transform="translate(123,115)"/>
<path d="M0 0 C1.55391462 0.26147602 3.10576789 0.53529136 4.65625 0.81640625 C6.81195989 1.14419695 8.96826222 1.46810455 11.125 1.7890625 C13.4689291 2.15118638 15.81267569 2.51449332 18.15625 2.87890625 C19.36023438 3.06517578 20.56421875 3.25144531 21.8046875 3.44335938 C24.75536939 3.90001252 27.70588322 4.35772239 30.65625 4.81640625 C31.15125 6.30140625 31.15125 6.30140625 31.65625 7.81640625 C18.76790551 7.40919157 6.30961943 5.18942835 -6.34375 2.81640625 C-3.76171875 -0.20654297 -3.76171875 -0.20654297 0 0 Z " fill="#DECECB" transform="translate(77.34375,129.18359375)"/>
<path d="M0 0 C0.33 0.66 0.66 1.32 1 2 C1.66 2.33 2.32 2.66 3 3 C2.01 3.99 1.02 4.98 0 6 C3.12498166 6.3373846 3.12498166 6.3373846 5.1875 4 C5.785625 3.34 6.38375 2.68 7 2 C6.34 3.98 5.68 5.96 5 8 C5.99 7.67 6.98 7.34 8 7 C8 7.66 8 8.32 8 9 C1.50448709 10.20287276 -3.60985973 9.58444052 -10 8 C-10.33 7.01 -10.66 6.02 -11 5 C-7.37 4.01 -3.74 3.02 0 2 C0 1.34 0 0.68 0 0 Z " fill="#502222" transform="translate(65,118)"/>
<path d="M0 0 C0.33 0 0.66 0 1 0 C1.09796875 0.68964844 1.1959375 1.37929687 1.296875 2.08984375 C2.76784009 11.33409852 5.76144758 18.32926253 11 26 C11 26.66 11 27.32 11 28 C10.01 28.33 9.02 28.66 8 29 C6.66981554 26.84261654 5.36148243 24.67607313 4.0625 22.5 C3.68931641 21.89929688 3.31613281 21.29859375 2.93164062 20.6796875 C-1.06751013 13.90635109 -1.43772382 7.66786038 0 0 Z " fill="#E3D7D7" transform="translate(40,94)"/>
<path d="M0 0 C0.66 0 1.32 0 2 0 C2.68707555 2.49064888 3 4.37886292 3 7 C1.35 6.67 -0.3 6.34 -2 6 C-2.33 6.66 -2.66 7.32 -3 8 C-3.99 7.34 -4.98 6.68 -6 6 C-6.33 6.66 -6.66 7.32 -7 8 C-7.66 7.34 -8.32 6.68 -9 6 C-9.99 6.495 -9.99 6.495 -11 7 C-11.66 5.35 -12.32 3.7 -13 2 C-12.14535156 1.93941406 -11.29070312 1.87882812 -10.41015625 1.81640625 C-8.75306641 1.69072266 -8.75306641 1.69072266 -7.0625 1.5625 C-5.96035156 1.48128906 -4.85820313 1.40007812 -3.72265625 1.31640625 C-1.08890097 1.29581916 -1.08890097 1.29581916 0 0 Z " fill="#E2DBDD" transform="translate(131,99)"/>
<path d="M0 0 C0.66 0.66 1.32 1.32 2 2 C3.32 1.34 4.64 0.68 6 0 C6.66 0.66 7.32 1.32 8 2 C7.401875 2.268125 6.80375 2.53625 6.1875 2.8125 C4.02775192 3.98493467 2.64209744 5.19369282 1 7 C2.65 7.33 4.3 7.66 6 8 C2.4513865 10.36574234 1.4235475 10.10865265 -2.6875 9.625 C-4.17830078 9.45871094 -4.17830078 9.45871094 -5.69921875 9.2890625 C-6.45847656 9.19367188 -7.21773438 9.09828125 -8 9 C-5.53496503 3.33041958 -5.53496503 3.33041958 -2.875 1.6875 C-1.946875 1.3471875 -1.946875 1.3471875 -1 1 C-0.67 0.67 -0.34 0.34 0 0 Z " fill="#B87C6B" transform="translate(84,105)"/>
<path d="M0 0 C0.33 0 0.66 0 1 0 C1 7.26 1 14.52 1 22 C0.34 22 -0.32 22 -1 22 C-2.29883646 18.03075579 -2.18380706 14.00370441 -2.1875 9.875 C-2.19974609 9.14667969 -2.21199219 8.41835937 -2.22460938 7.66796875 C-2.22985188 5.77717022 -2.12233385 3.88684419 -2 2 C-1.34 1.34 -0.68 0.68 0 0 Z " fill="#F0E5E4" transform="translate(39,79)"/>
<path d="M0 0 C0.33 0 0.66 0 1 0 C0.67 3.3 0.34 6.6 0 10 C-1.32 10 -2.64 10 -4 10 C-4.103125 10.763125 -4.20625 11.52625 -4.3125 12.3125 C-5.04364039 15.17059424 -5.76951913 16.15742885 -8 18 C-7.43179252 12.54520815 -6.05362055 8.08940744 -4 3 C-3.34 3.33 -2.68 3.66 -2 4 C-1.34 2.68 -0.68 1.36 0 0 Z " fill="#E6E1E3" transform="translate(123,72)"/>
<path d="M0 0 C1.91015625 0.23046875 1.91015625 0.23046875 3.91015625 2.23046875 C1.93015625 2.56046875 -0.04984375 2.89046875 -2.08984375 3.23046875 C-0.59130859 3.30394531 -0.59130859 3.30394531 0.9375 3.37890625 C2.87302734 3.49105469 2.87302734 3.49105469 4.84765625 3.60546875 C6.77931641 3.70988281 6.77931641 3.70988281 8.75 3.81640625 C10.31427734 4.02136719 10.31427734 4.02136719 11.91015625 4.23046875 C12.24015625 4.89046875 12.57015625 5.55046875 12.91015625 6.23046875 C4.5079966 6.34086209 -3.73721199 6.18505524 -12.08984375 5.23046875 C-11.28546875 4.59109375 -10.48109375 3.95171875 -9.65234375 3.29296875 C-5.9874706 0.3431928 -4.8765124 0.09735324 0 0 Z " fill="#BCA09D" transform="translate(96.08984375,49.76953125)"/>
<path d="M0 0 C3.25 -0.3125 3.25 -0.3125 7 0 C9.4375 2.375 9.4375 2.375 11 5 C11 5.66 11 6.32 11 7 C8.69 7 6.38 7 4 7 C2.02 3.535 2.02 3.535 0 0 Z " fill="#B74D29" transform="translate(85,73)"/>
<path d="M0 0 C0.33 0.99 0.66 1.98 1 3 C1.66 3 2.32 3 3 3 C4.0064275 4.66279327 5.00585407 6.32983484 6 8 C6.99 8.66 7.98 9.32 9 10 C8.34 11.32 7.68 12.64 7 14 C4.69 14 2.38 14 0 14 C-0.33 13.34 -0.66 12.68 -1 12 C0.98 12 2.96 12 5 12 C4.360625 11.505 3.72125 11.01 3.0625 10.5 C0.18484731 7.01193613 0.29769264 4.46538959 0 0 Z " fill="#BB5837" transform="translate(93,69)"/>
<path d="M0 0 C0.66 0.33 1.32 0.66 2 1 C0.515 3.475 0.515 3.475 -1 6 C-0.34 6.33 0.32 6.66 1 7 C1 7.66 1 8.32 1 9 C1.8353125 9.1546875 1.8353125 9.1546875 2.6875 9.3125 C5.4769101 10.14178408 7.6139064 11.34299056 10 13 C10 13.66 10 14.32 10 15 C6.00118212 14.38479725 3.19641774 12.39731331 0 10 C0 9.34 0 8.68 0 8 C-0.99 7.67 -1.98 7.34 -3 7 C-3 6.34 -3 5.68 -3 5 C-3.66 5 -4.32 5 -5 5 C-5.33 3.68 -5.66 2.36 -6 1 C-4.7934375 1.0309375 -4.7934375 1.0309375 -3.5625 1.0625 C-1.06645115 1.29633621 -1.06645115 1.29633621 0 0 Z " fill="#8B6D6E" transform="translate(103,108)"/>
<path d="M0 0 C6.17222879 1.24028238 12.06682122 2.89603589 18 5 C16 8 16 8 12.5 8.8125 C10.7675 8.9053125 10.7675 8.9053125 9 9 C8.34 8.34 7.68 7.68 7 7 C8.32 6.67 9.64 6.34 11 6 C7.37 4.35 3.74 2.7 0 1 C0 0.67 0 0.34 0 0 Z " fill="#AB9596" transform="translate(52,106)"/>
<path d="M0 0 C1.3479743 0.63654342 2.68596724 1.29605388 4 2 C-0.75 6 -0.75 6 -3 6 C-3 5.01 -3 4.02 -3 3 C-4.98 3 -6.96 3 -9 3 C-5.85820714 -0.28460162 -4.46423774 -1.44431221 0 0 Z " fill="#B74E2A" transform="translate(101,102)"/>
<path d="M0 0 C1.32 0.33 2.64 0.66 4 1 C0.50912907 5.0042343 -1.64951939 6.62671065 -7 7 C-6.814375 6.38125 -6.62875 5.7625 -6.4375 5.125 C-5.76313824 2.95839822 -5.76313824 2.95839822 -7 1 C-4.69 1 -2.38 1 0 1 C0 0.67 0 0.34 0 0 Z " fill="#E9D9D5" transform="translate(108,135)"/>
<path d="M0 0 C0.33 0 0.66 0 1 0 C1.13277344 0.73605469 1.26554687 1.47210938 1.40234375 2.23046875 C1.57894531 3.20628906 1.75554688 4.18210937 1.9375 5.1875 C2.19853516 6.63189453 2.19853516 6.63189453 2.46484375 8.10546875 C2.9523735 10.74239972 3.46671105 13.3719905 4 16 C3.01 16.33 2.02 16.66 1 17 C-0.96611502 12.95520612 -1.11331236 10.13114252 -0.625 5.6875 C-0.51414063 4.61886719 -0.40328125 3.55023438 -0.2890625 2.44921875 C-0.14597656 1.23685547 -0.14597656 1.23685547 0 0 Z " fill="#E3D8D9" transform="translate(40,94)"/>
<path d="M0 0 C0.33 0 0.66 0 1 0 C1.33 2.64 1.66 5.28 2 8 C0.68 8.33 -0.64 8.66 -2 9 C-2.33 10.65 -2.66 12.3 -3 14 C-4.61949011 11.42786866 -5.04408751 10.32330841 -4.625 7.25 C-4.41875 6.5075 -4.2125 5.765 -4 5 C-2.68 5 -1.36 5 0 5 C0 3.35 0 1.7 0 0 Z " fill="#694142" transform="translate(123,77)"/>
<path d="M0 0 C0 0.66 0 1.32 0 2 C-1.24420647 2.5345256 -2.49570936 3.05208611 -3.75 3.5625 C-4.44609375 3.85253906 -5.1421875 4.14257812 -5.859375 4.44140625 C-8.30012784 5.07831803 -9.6403655 4.80248831 -12 4 C-7.81413519 0.81076967 -5.29441695 -0.50423019 0 0 Z " fill="#EDE5E5" transform="translate(81,39)"/>
<path d="M0 0 C1.32257813 0.19142578 1.32257813 0.19142578 2.671875 0.38671875 C4.00992188 0.56654297 4.00992188 0.56654297 5.375 0.75 C6.05046875 0.85699219 6.7259375 0.96398437 7.421875 1.07421875 C7.751875 2.06421875 8.081875 3.05421875 8.421875 4.07421875 C3.471875 3.74421875 -1.478125 3.41421875 -6.578125 3.07421875 C-2.578125 0.07421875 -2.578125 0.07421875 0 0 Z " fill="#CA988A" transform="translate(100.578125,132.92578125)"/>
<path d="M0 0 C0.66 0 1.32 0 2 0 C3.4783226 2.95664519 3.06032783 5.74229737 3 9 C2.34 7.68 1.68 6.36 1 5 C-0.98 5.99 -0.98 5.99 -3 7 C-3.33 5.68 -3.66 4.36 -4 3 C-2.68 2.34 -1.36 1.68 0 1 C0 0.67 0 0.34 0 0 Z " fill="#D09F90" transform="translate(109,56)"/>
<path d="M0 0 C1.32532774 1.19279497 2.614196 2.426696 3.875 3.6875 C3.545 4.3475 3.215 5.0075 2.875 5.6875 C0.8125 6.3125 0.8125 6.3125 -1.125 6.6875 C-2.1875 4.8125 -2.1875 4.8125 -3.125 2.6875 C-2.795 2.0275 -2.465 1.3675 -2.125 0.6875 C-3.445 0.3575 -4.765 0.0275 -6.125 -0.3125 C-3.39321549 -1.38570106 -2.56298 -1.58301706 0 0 Z " fill="#6D4647" transform="translate(119.125,102.3125)"/>
<path d="M0 0 C5.21979128 -0.1799928 9.07262981 0.02905192 14 2 C14 2.33 14 2.66 14 3 C4.58997722 3.3690205 4.58997722 3.3690205 0 1 C0 0.67 0 0.34 0 0 Z " fill="#EFEAEB" transform="translate(62,128)"/>
<path d="M0 0 C1.08667969 0.29197266 1.08667969 0.29197266 2.1953125 0.58984375 C2.74960938 0.74582031 3.30390625 0.90179688 3.875 1.0625 C3.875 2.0525 3.875 3.0425 3.875 4.0625 C2.8025 4.206875 1.73 4.35125 0.625 4.5 C-2.04162949 4.89999442 -4.53899729 5.33841924 -7.125 6.0625 C-5.805 4.7425 -4.485 3.4225 -3.125 2.0625 C-4.115 1.4025 -5.105 0.7425 -6.125 0.0625 C-3.57797384 -1.21101308 -2.6967055 -0.73941925 0 0 Z " fill="#CB9281" transform="translate(94.125,103.9375)"/>
<path d="M0 0 C0.66 0.99 1.32 1.98 2 3 C-1.63 3.33 -5.26 3.66 -9 4 C-9 3.34 -9 2.68 -9 2 C-5.89782379 0.16167336 -3.60591321 -0.47446226 0 0 Z " fill="#E6E0E2" transform="translate(100,47)"/>
<path d="M0 0 C8.57142857 -0.28571429 8.57142857 -0.28571429 12 2 C9.37684968 3.31157516 7.76966564 2.89649988 4.875 2.5625 C3.96492188 2.46066406 3.05484375 2.35882813 2.1171875 2.25390625 C1.41851562 2.17011719 0.71984375 2.08632812 0 2 C0 1.34 0 0.68 0 0 Z " fill="#ECE3E3" transform="translate(86,132)"/>
<path d="M0 0 C0.68707555 2.49064888 1 4.37886292 1 7 C-1.91517292 5.92598892 -3.77810176 5.22189824 -6 3 C-2.25 0 -2.25 0 0 0 Z " fill="#D8CFD1" transform="translate(133,99)"/>
<path d="M0 0 C0.66 0.33 1.32 0.66 2 1 C2 1.66 2 2.32 2 3 C2.66 3 3.32 3 4 3 C4 3.66 4 4.32 4 5 C3.01 5.495 3.01 5.495 2 6 C1.01 7.485 1.01 7.485 0 9 C-0.33 8.01 -0.66 7.02 -1 6 C-1.66 5.67 -2.32 5.34 -3 5 C-3 3 -3 3 -1.5 1.375 C-1.005 0.92125 -0.51 0.4675 0 0 Z " fill="#D9D1D2" transform="translate(62,56)"/>
<path d="M0 0 C1.32 0.33 2.64 0.66 4 1 C3.67 2.32 3.34 3.64 3 5 C2.67 4.67 2.34 4.34 2 4 C1.34 5.32 0.68 6.64 0 8 C-1.125 6.25 -1.125 6.25 -2 4 C-1.125 1.75 -1.125 1.75 0 0 Z " fill="#673F40" transform="translate(121,69)"/>
<path d="M0 0 C2 2 2 2 2.375 4.375 C1.89262388 7.75163282 0.55541504 8.84386856 -2 11 C-1 3.57142857 -1 3.57142857 0 0 Z " fill="#CBBFC0" transform="translate(117,79)"/>
<path d="M0 0 C2.97 0.33 5.94 0.66 9 1 C9 1.33 9 1.66 9 2 C7.02 2 5.04 2 3 2 C3 2.66 3 3.32 3 4 C0.69 3.67 -1.62 3.34 -4 3 C-2.68 2.67 -1.36 2.34 0 2 C0 1.34 0 0.68 0 0 Z " fill="#E5C4BB" transform="translate(77,138)"/>
<path d="M0 0 C0.33 0.66 0.66 1.32 1 2 C1.99 2.33 2.98 2.66 4 3 C3.67 3.99 3.34 4.98 3 6 C1.35 6 -0.3 6 -2 6 C-2 4.68 -2 3.36 -2 2 C-1.34 2 -0.68 2 0 2 C0 1.34 0 0.68 0 0 Z " fill="#F8DBD1" transform="translate(157,87)"/>
<path d="M0 0 C0.66 0 1.32 0 2 0 C2 0.66 2 1.32 2 2 C2.66 2.33 3.32 2.66 4 3 C3.01 4.485 3.01 4.485 2 6 C1.01 6 0.02 6 -1 6 C-1.33 4.68 -1.66 3.36 -2 2 C-1.34 2 -0.68 2 0 2 C0 1.34 0 0.68 0 0 Z " fill="#FAE6DF" transform="translate(22,87)"/>
<path d="M0 0 C0.33 0.99 0.66 1.98 1 3 C1.66 3 2.32 3 3 3 C3.66 4.65 4.32 6.3 5 8 C3.68 8 2.36 8 1 8 C0.67 5.36 0.34 2.72 0 0 Z " fill="#C98068" transform="translate(93,69)"/>
<path d="M0 0 C3.48330216 0.64505596 6.09432866 1.98217268 9 4 C9 4.66 9 5.32 9 6 C4.75177626 5.52797514 2.80010291 3.03344482 0 0 Z " fill="#AD9899" transform="translate(104,117)"/>
<path d="M0 0 C-0.33 0.66 -0.66 1.32 -1 2 C-3.32156597 2.40729228 -5.6568787 2.74438677 -8 3 C-8.33 2.34 -8.66 1.68 -9 1 C-5.64919071 -1.10976881 -3.77897651 -1.0497157 0 0 Z " fill="#D7C7C6" transform="translate(106,107)"/>
<path d="M0 0 C1.98 0.99 1.98 0.99 4 2 C3.67 3.65 3.34 5.3 3 7 C0 3.375 0 3.375 0 0 Z " fill="#EBE3E4" transform="translate(42,110)"/>
<path d="M0 0 C0.33 0 0.66 0 1 0 C1.33 3.3 1.66 6.6 2 10 C1.34 10 0.68 10 0 10 C-0.33 10.66 -0.66 11.32 -1 12 C-0.67 8.04 -0.34 4.08 0 0 Z " fill="#D3C5C5" transform="translate(40,94)"/>
<path d="M0 0 C2.93200474 2.85276137 5.64315404 5.65079784 8 9 C7.01 9 6.02 9 5 9 C3.61328125 7.5390625 3.61328125 7.5390625 2.3125 5.625 C1.65701172 4.68527344 1.65701172 4.68527344 0.98828125 3.7265625 C0 2 0 2 0 0 Z " fill="#B8A7A8" transform="translate(57,94)"/>
<path d="M0 0 C0.99 0.33 1.98 0.66 3 1 C4.6875 4.5625 4.6875 4.5625 6 8 C4.125 7.375 4.125 7.375 2 6 C0.75 2.875 0.75 2.875 0 0 Z " fill="#B64B26" transform="translate(95,70)"/>
<path d="M0 0 C3.3 0.99 6.6 1.98 10 3 C9.67 3.66 9.34 4.32 9 5 C5.625 4.75 5.625 4.75 2 4 C1.34 2.68 0.68 1.36 0 0 Z " fill="#B3A0A1" transform="translate(123,62)"/>
<path d="M0 0 C2.97 0.495 2.97 0.495 6 1 C6 1.66 6 2.32 6 3 C4.02 3 2.04 3 0 3 C0 2.01 0 1.02 0 0 Z " fill="#EFE6E6" transform="translate(71,137)"/>
</svg>
